<svg height='100px' width='100px'  fill="#FFFFFF" xmlns="http://www.w3.org/2000/svg" xmlns:xlink="http://www.w3.org/1999/xlink" version="1.1" x="0px" y="0px" viewBox="0 0 100 100" enable-background="new 0 0 100 100" xml:space="preserve"><g><g><g><g><defs><path id="ab" d="M7.626,50.494c0,23.326,18.914,42.236,42.24,42.236c23.327,0.004,42.241-18.91,42.241-42.236       c0-23.329-18.914-42.241-42.241-42.241C26.54,8.253,7.626,27.166,7.626,50.494"></path></defs><clipPath id="aa"><use xlink:href="#ab" overflow="visible"></use></clipPath><polygon clip-path="url(#aa)" points="39.122,9.134 38.28,10.361 36.92,10.88 36.208,11.528 36.643,12.045 36.617,13.146       37.267,13.146 38.755,12.779 40.611,12.67 42.079,14.913 41.861,16.189 41.603,16.813 41.861,17.549 41.582,18.345       41.755,19.425 42.315,19.425 43.04,19.1 43.04,19.725 42.057,20.395 41.734,20.914 41.861,21.69 42.143,22.099 42.143,22.725       42.595,23.504 43.179,25.035 44.214,26.63 45.401,26.521 45.811,27.041 46.287,26.953 46.673,26.222 47.063,25.185       47.494,23.869 47.817,22.574 48.227,21.753 48.832,21.432 49.78,21.409 50.233,21.302 50.795,20.783 51.42,19.725 52.672,19.1       53.361,18.452 54.743,18.086 55.648,17.914 56.059,17.698 56.059,17.331 55.822,17.095 54.829,17.051 54.246,16.813       54.16,16.339 54.312,16.016 55.046,15.905 55.975,15.995 56.297,15.325 55.777,14.83 56.619,13.921 56.619,12.583       57.139,12.022 57.139,11.679 56.771,11.375 57.332,11.052 57.57,10.643 57.117,10.298 56.47,10.037 56.018,9.605 56.43,9.261       57.355,8.701 52.09,8.096 45.551,8.253     "></polygon></g><g><defs><path id="z" d="M7.626,50.494c0,23.326,18.914,42.236,42.24,42.236c23.327,0.004,42.241-18.91,42.241-42.236       c0-23.329-18.914-42.241-42.241-42.241C26.54,8.253,7.626,27.166,7.626,50.494"></path></defs><clipPath id="y"><use xlink:href="#z" overflow="visible"></use></clipPath><polygon clip-path="url(#y)" points="55.35,20.761 55.35,21.454 55.455,21.906 55.238,22.465 55.455,22.963       55.93,23.179 56.406,23.567 57.311,23.803 57.766,23.523 58.412,23.265 58.734,23.222 59.145,23.005 59.557,22.51       59.855,22.284 60.157,22.121 60.157,21.713 59.771,21.518 59.404,21.302 59.254,21.043 59.209,20.761 58.822,20.613       58.367,20.978 57.701,21.149 57.355,20.998 57.008,21.214 56.361,21.172 55.889,20.761     "></polygon></g><g><defs><path id="x" d="M7.626,50.494c0,23.326,18.914,42.236,42.24,42.236c23.327,0.004,42.241-18.91,42.241-42.236       c0-23.329-18.914-42.241-42.241-42.241C26.54,8.253,7.626,27.166,7.626,50.494"></path></defs><clipPath id="w"><use xlink:href="#x" overflow="visible"></use></clipPath><polygon clip-path="url(#w)" points="35.475,10.557 35.153,11.333 34.657,11.979 34.159,12.176 33.752,12.583       33.944,13.06 33.513,13.534 32.93,13.77 32.93,14.548 32.737,15.022 32.238,15.347 31.722,15.455 31.139,15.67 30.449,15.798       29.908,16.016 29.328,16.124 28.917,16.296 28.486,16.296 28.162,16.102 28.162,15.691 28.377,15.022 27.989,14.85       27.276,14.72 28.377,13.75 28.587,14.074 29.109,14.226 29.759,14.202 30.232,13.879 30.579,13.577 30.859,13.124       30.728,12.628     "></polygon></g><g><defs><path id="v" d="M7.626,50.494c0,23.326,18.914,42.236,42.24,42.236c23.327,0.004,42.241-18.91,42.241-42.236       c0-23.329-18.914-42.241-42.241-42.241C26.54,8.253,7.626,27.166,7.626,50.494"></path></defs><clipPath id="u"><use xlink:href="#v" overflow="visible"></use></clipPath><polygon clip-path="url(#u)" points="25.788,15.455 26.63,15.691 27.276,15.798 27.362,16.382 27.729,16.836       28.009,16.836 28.009,17.417 27.665,17.784 27.016,17.957 26.63,18.238 26.63,18.735 27.016,19.121 27.386,19.489       27.276,20.008 26.802,20.459 26.286,20.699 25.875,20.87 25.141,20.87 24.688,20.87 25.271,20.48 25.292,20.029 25.451,19.511       25.079,19.511 24.688,19.683 24.193,19.79 23.825,19.489 23.934,19.035 24.278,18.477 25.032,17.871 25.788,17.569       26.263,17.417 26.52,17.071 26.543,16.707 26.047,16.661 25.451,16.661 25.25,16.468 25.054,16.102     "></polygon></g><g><defs><path id="t" d="M7.626,50.494c0,23.326,18.914,42.236,42.24,42.236c23.327,0.004,42.241-18.91,42.241-42.236       c0-23.329-18.914-42.241-42.241-42.241C26.54,8.253,7.626,27.166,7.626,50.494"></path></defs><clipPath id="s"><use xlink:href="#t" overflow="visible"></use></clipPath><polygon clip-path="url(#s)" points="21.517,18.972 21.991,19.059 22.487,18.756 22.638,19.252 22.638,19.813       22.551,20.158 22.725,20.566 23.308,20.87 23.653,20.998 23.653,21.561 23.135,21.992 22.402,22.078 21.517,22.078       21.105,22.465 20.545,22.875 19.814,23.027 19.359,23.265 18.54,23.094 18.149,22.875 17.913,22.145     "></polygon></g><g><defs><path id="r" d="M7.626,50.494c0,23.326,18.914,42.236,42.24,42.236c23.327,0.004,42.241-18.91,42.241-42.236       c0-23.329-18.914-42.241-42.241-42.241C26.54,8.253,7.626,27.166,7.626,50.494"></path></defs><clipPath id="q"><use xlink:href="#r" overflow="visible"></use></clipPath><path clip-path="url(#q)" d="M16.942,23.676l0.647,0.172l0.108,0.452l0.107,0.326h0.433l0.452-0.174l0.15-0.301h0.539      l0.498,0.236l0.517,0.239l0.391-0.326l0.493-0.409l0.454-0.387l0.712-0.239h0.538l0.584-0.389h0.453l0.214,0.562l0.519-0.173      l0.301-0.582l0.217-0.347l0.18-0.344l0.466-0.239h0.692h0.688l0.711-0.744l0.217,0.097l-0.217,0.562l-0.236,0.624l0.236,0.369      l0.217,0.063l0.539-0.365l0.367-0.496l0.217-0.496v-0.358l0.238-0.14l0.408-0.303h0.668l0.216,0.443l-0.26,0.378l-0.084,0.562      l0.257,0.431l-0.15,0.496l-0.476,0.11l-0.389,0.279l-0.346,0.279l-0.516,0.067l-0.432,0.344l-0.477,0.476l-0.69,0.042      l-0.346,0.345v0.496l-0.259,0.672L26.24,26.37l-0.323,0.432L25.724,27.3l-0.67,0.432l-0.884,0.3l-0.345,0.604l-0.149,0.344      l-0.109,0.693l0.129,0.798l0.583,0.432h0.624l0.369,0.41l0.561,0.15l0.409,0.214l0.647,0.432l0.432-0.128l0.627-0.261l0.3,0.129      l-0.343,0.755l-0.108,0.604l-0.107,0.71l0.15,0.779l0.194,0.561l0.474,0.151l0.304-0.365l0.279-0.347l0.132-0.691l-0.197-0.71      l0.109-0.453l0.517-0.497l0.497-0.518l0.647-0.801l0.326-0.841v-0.58L30.623,29l-0.084-0.54l0.583-0.386l0.278-0.605      l-0.365-0.54l0.107-0.562l0.819-0.213l0.972-0.022l0.69,0.173l0.195,0.495l0.43,0.151l0.303,0.088v0.668l0.367,0.603l0.41,0.389      l0.604-0.28l0.389-0.646l0.432-0.412l0.518-0.04l0.324,0.517l-0.11,0.905L37.4,29.11l0.389,0.473l0.282,0.324l-0.346,0.628      l0.516,0.298l0.519,0.651l0.627,0.431l0.54,0.452l0.408,0.562v0.367l-0.323,0.255l-0.539,0.048L38.69,33.75l-0.367,0.304      l-0.431,0.688l-0.239,0.67l-1.077,0.239l-0.368-0.172l-0.993-0.046l-0.668,0.218l-0.17,0.58l0.517,0.284h0.474l-0.152,0.494      l-0.257,0.605l0.194,0.539l0.259,0.237h0.452l0.712-0.431l0.367-0.303h0.497l0.107,0.561l-0.325,0.366l-1.015,0.562      l-1.165,0.582l-0.646,0.604l-0.518-0.173l0.021-0.517l0.368-0.454l-0.951,0.494l-0.752,0.433l-0.735,0.927l0.151,0.801      L31.678,42.4l-0.646,0.259h-0.713L29.822,43.5l-0.453,0.669l-0.194,0.712l-0.539-0.236l-0.131-0.647l-0.279,0.087l-0.128,0.886      l-0.089,0.927l0.065,0.368l-0.237,0.322l-0.864,0.646l-0.624,0.583l-0.237,0.584l-0.195,1.229l-0.065,0.992l-0.237,1.315      l0.022,0.734l-0.539,0.301l-0.431-0.604l-0.153-0.8l-0.171-0.688l-0.538-0.518L23.2,50.018l-0.796-0.109l-0.541,0.023      l-0.042,0.689l-0.8-0.042l-0.841-0.237l-0.973,0.021l-1.078,0.322l-0.711,0.842l-0.217,0.841l-0.259,0.604l-0.15,0.928v1.383      l0.129,0.84l0.668,0.434l0.344,0.584l0.842,0.127l0.995-0.584l0.537-0.668l0.26-0.671l0.95-0.194l0.713,0.434l-0.132,0.67      l-0.581,1.1l-0.368,0.779l-0.129,0.428h0.733l1.123,0.152l0.625,0.41l-0.021,0.863l-0.129,0.906l0.389,0.731l0.626,0.584      l0.797-0.215L25.94,62.1l0.67,0.603l0.474-0.388l0.279-0.518l0.647-0.475l0.735-0.346l0.862-0.365l0.432,0.434h0.884      l0.323,0.492l0.843,0.26l1.228-0.086l1.254,0.107l0.517,0.586l-0.647,0.297l-0.215,0.258h0.862h0.646l0.282,0.739L35.8,64.064      h0.907l0.41,0.233h1.016l0.73,0.281l0.714,0.733l0.086,0.67l0.667,0.259v0.93l-0.604,0.75l-0.021,0.457l0.497-0.538l0.476-0.177      l0.494,0.348l0.453,0.52h0.56l0.713,0.323l0.109,0.45l1.012,0.435l0.82,0.258h0.754l0.735,0.582l0.171,0.322l0.52,0.262h0.496      l0.302,0.756v1.296l-0.367,1.013l-0.733,0.795l-0.41,0.738l-0.518,0.279l-0.021,0.994l0.216,0.754l-0.133,0.604l-0.279,0.213      l0.021,0.754l-0.537,0.435l-0.391,0.336l0.044,0.506l-0.604,0.605l-1.078,0.303l-1.36,0.646l-0.496,0.455l-0.107,1.057      l-0.28,0.992l-0.454,0.584l-0.452,0.19l-0.454,1.037l-0.733,0.121l-0.733-0.211l-0.734-0.104l-0.258-0.106l0.173,0.698      l0.539,0.465l0.194,0.496l-0.453,0.41l-0.432,0.453l-0.434-0.367l-0.625-0.104l-0.107,0.343l0.043,0.689l-0.452,0.238h-0.433      l0.15,0.797l-4.486-1.793l0.13-1.162l0.02-1.272l0.196-0.731l0.043-0.454l-0.368-0.302l0.368-0.994l-0.216-0.366l-0.26-0.39      l-0.15-0.449l0.258-0.586l-0.021-0.818l0.107-0.873l-0.194-0.615L30.3,79.059l0.302-0.816l-0.065-0.647l-0.757-0.498      l-1.23-0.751l-0.279-0.521L27.86,75.65l-0.171-0.496l-0.39-0.625l-0.539-0.928l-0.345-0.52l-0.216-0.776l-0.949-0.538      l-0.517-0.582l-0.5-0.584l-0.214-0.475l0.41-0.516l0.195-0.306l-0.498-0.516l0.238-0.948l0.518-0.629l0.754-0.712l0.496-0.774      l-0.106-0.843l-0.021-0.774l-0.26-0.736l-0.496-0.322l-0.367,0.346l-0.369-0.367l-0.709,0.067c0,0-0.435,0-0.454-0.089      c-0.022-0.086-0.388-0.475-0.388-0.475l-0.347-0.367l-0.604-0.085l-0.15-1.034l-0.713-0.756l-0.604-0.457l-0.626-0.062      l-0.776-0.235l-0.477-0.519l-0.451-0.52l-0.67-0.217l-0.948,0.021l-0.907,0.152l-0.41-0.175l-0.754-0.172l-0.691-0.518      l-0.282-0.496l-0.277-0.475l-0.801-0.17V56.04l0.369-0.595l-0.023-0.553l-0.842-0.476l-0.086-0.752l0.086-0.758l-0.646-0.904      L10.6,51.16l-0.281-0.777L9.714,50.02l0.367,0.969l-0.044,0.733l0.323,0.906l0.345,0.82l0.153,0.734L10.6,54.548l-0.562-0.278      l-0.604-0.367l-0.259-0.39c0,0-0.043-0.583,0-0.646c0.044-0.062,0.087-0.668,0.087-0.668L8.81,52.05l0.259-0.52v-0.541      l-0.583-0.302V50.02L8.16,49.134l-0.539-0.453l0.133-5.826l2.198-7.551l4.271-8.784L16.942,23.676z"></path></g><g><defs><path id="p" d="M7.626,50.494c0,23.326,18.914,42.236,42.24,42.236c23.327,0.004,42.241-18.91,42.241-42.236       c0-23.329-18.914-42.241-42.241-42.241C26.54,8.253,7.626,27.166,7.626,50.494"></path></defs><clipPath id="o"><use xlink:href="#p" overflow="visible"></use></clipPath><polygon clip-path="url(#o)" points="23.413,54.548 24.106,54.118 24.86,53.924 26.286,54.236 26.888,54.548       27.104,54.893 27.579,54.893 28.205,55.346 28.636,55.543 28.009,55.994 27.515,56.254 26.974,56.254 26.543,55.932       26.457,55.445 26.026,55.445 25.767,55.088 25.292,54.789 24.709,54.918 24.278,55.261 23.739,55.088     "></polygon></g><g><defs><path id="n" d="M7.626,50.494c0,23.326,18.914,42.236,42.24,42.236c23.327,0.004,42.241-18.91,42.241-42.236       c0-23.329-18.914-42.241-42.241-42.241C26.54,8.253,7.626,27.166,7.626,50.494"></path></defs><clipPath id="m"><use xlink:href="#n" overflow="visible"></use></clipPath><polygon clip-path="url(#m)" points="29.241,56.124 29.952,55.994 30.492,56.124 31.396,56.451 31.785,56.684       31.463,57.01 30.514,57.113 29.974,57.377 29.521,57.636 28.895,57.549 28.421,57.182 28.141,56.816 29.023,56.684     "></polygon></g><g><defs><path id="l" d="M7.626,50.494c0,23.326,18.914,42.236,42.24,42.236c23.327,0.004,42.241-18.91,42.241-42.236       c0-23.329-18.914-42.241-42.241-42.241C26.54,8.253,7.626,27.166,7.626,50.494"></path></defs><clipPath id="k"><use xlink:href="#l" overflow="visible"></use></clipPath><polygon clip-path="url(#k)" points="39.684,34.593 39.036,34.593 38.819,35.197 38.819,35.736 38.28,36.298       38.433,36.792 39.145,36.792 39.984,36.706 40.611,36.965 40.893,37.396 41.538,37.309 41.711,36.75 41.236,36.23 40.74,35.996       40.631,35.432 40.222,35.325 39.835,35.024     "></polygon></g><g><defs><path id="j" d="M7.626,50.494c0,23.326,18.914,42.236,42.24,42.236c23.327,0.004,42.241-18.91,42.241-42.236       c0-23.329-18.914-42.241-42.241-42.241C26.54,8.253,7.626,27.166,7.626,50.494"></path></defs><clipPath id="i"><use xlink:href="#j" overflow="visible"></use></clipPath><polygon clip-path="url(#i)" points="29.328,24.214 28.486,24.667 28.486,25.443 28.009,25.53 28.182,25.638       28.917,25.638 29.22,26.004 29.715,26.004 30.146,25.509 29.649,24.839 29.672,24.431     "></polygon></g><g><defs><path id="h" d="M7.626,50.494c0,23.326,18.914,42.236,42.24,42.236c23.327,0.004,42.241-18.91,42.241-42.236       c0-23.329-18.914-42.241-42.241-42.241C26.54,8.253,7.626,27.166,7.626,50.494"></path></defs><clipPath id="g"><use xlink:href="#h" overflow="visible"></use></clipPath><path clip-path="url(#g)" d="M31.527,23.998l-0.366,0.561l0.366,0.477l0.627,0.073l0.583-0.398l0.882,0.239l0.648,0.862      l1.12,0.193l0.604-0.237l0.216-0.345l-0.409-0.314l-0.324-0.378c0,0,0.69-0.172,0.733-0.172c0.045,0,0.541-0.021,0.541-0.021      l0.171-0.54l-0.43-0.539l-0.282-0.583l0.129-0.54l0.478-0.237l0.688,0.777l0.174,0.173l0.194-0.301l0.323-0.517l0.453-0.453      l0.24-0.605l-0.693-0.303h-0.862l-0.604-0.303L36.49,20.05l0.367-0.82l-0.022-0.582l-0.626-0.151l-0.56-0.334l-0.236-0.593      l0.063-0.538l-0.818-0.305l-0.669,0.109h-0.52l0.24-0.54l0.063-0.366H33.08l-0.582,0.366l-0.776,0.239l-1.166,0.084      l-0.968,0.259l-0.606,0.691l-0.388,0.907v0.968l0.486,0.345l0.938-0.043h0.733l0.627-0.54l0.429,0.109l0.045,0.409l0.431-0.084      l0.455-0.368l0.494,0.172l-0.13,0.541l0.13,0.388l0.508,0.086l0.55,0.55l-0.174,0.704l-0.376,0.495l-0.422,0.302l0.045,0.647      l0.257,0.237l-0.496,0.129l-0.928,0.087L31.527,23.998z"></path></g><g><defs><path id="f" d="M7.626,50.494c0,23.326,18.914,42.236,42.24,42.236c23.327,0.004,42.241-18.91,42.241-42.236       c0-23.329-18.914-42.241-42.241-42.241C26.54,8.253,7.626,27.166,7.626,50.494"></path></defs><clipPath id="e"><use xlink:href="#f" overflow="visible"></use></clipPath><path clip-path="url(#e)" d="M81.346,40.419l-0.279,0.756l-1.75,0.753l-0.558,0.561l0.042,0.604l0.84,0.562      l-0.062,0.453l-0.521,0.258l-0.754,0.345h-0.346l-0.303-0.798l-0.301-0.688l-0.345-0.585l0.147-0.689l0.173-0.584l-0.366-0.323      l-0.474-0.452l-0.884-0.453c0,0-0.627-0.476-0.693-0.476c-0.062,0-0.475-0.735-0.475-0.735l-0.475-0.321l-0.775-0.323      l-0.282,0.279l0.108,0.714l0.324,0.387l0.475,0.323l0.582,0.733l0.539,0.669l0.409,0.085l0.562,0.41l0.174,0.455l-0.408-0.214      L75.368,42.1l-0.151,0.369v0.649l0.022,0.365l-0.304-0.022l-0.106-0.885l-0.304-0.82l-0.493-0.085l-0.759-0.69l-0.494-0.541      l-0.475-0.906l-0.322-0.56l-0.627-0.046l-0.627,0.198l-0.731,0.666l-0.843,0.089l-0.541,0.322l-0.475,0.82l-0.623,0.517      l-0.348,0.627l-0.236,0.861l-0.603,0.757l-0.453,0.347l-0.714,0.259l-0.367-0.086l-0.451,0.086l-0.627,0.087l-0.475-0.285      l-0.582,0.132l-0.453-0.346v-0.993V42.23l0.494-0.669l-0.324-0.47l-0.17-0.78l0.26-0.56h0.883h0.607l0.299-0.174h1.08h0.926      l0.348-0.71l0.086-0.582l-0.411-0.217l-0.646-0.495l-0.714-0.757l-0.409-0.711l0.541-0.345h0.711l0.109-0.347l0.387-0.582      l0.67,0.217l0.582-0.088v-0.69l0.348-0.151l0.904-0.625l0.258-0.755l0.604-0.691l0.54,0.259l0.54-0.259l0.218-0.367      l-0.176-0.538l-0.321-0.648l0.062-0.776l-0.062-0.754l0.688-0.366l0.543,0.345l0.084,0.757l-0.191,0.708l-0.236,0.67l0.559,0.69      l0.389-0.13l0.948-0.106l1.272-0.174l1.317-0.153l0.69-0.256l0.193-0.671l0.172-0.69l0.261-0.818l0.432-0.066l0.603,0.367      l0.349-0.214v-0.626l-0.519-0.733l0.322-0.453l0.777,0.172h0.668l0.584-0.172l0.43-0.196V26.4l-0.43-0.454l-0.756-0.063      l-0.863,0.384l-0.773,0.259l-0.844-0.087l-0.348-0.731l-0.127-1.077l0.322-0.822l-0.063-0.928l0.515-0.238l0.545-0.818      l-0.584-0.647l-0.629-0.043l-0.732,0.734c0,0-0.042,0.798-0.042,0.861c0,0.066-0.239,0.626-0.239,0.626l-0.54,0.713      l-0.405,0.626l-0.064,0.795l0.604,0.392l0.347,0.643l-0.261,0.67l-0.731,0.412l-0.562,0.475l0.172,0.26      c0,0,0.475,0.517,0.408,0.517c-0.062,0,0.024,0.584,0.024,0.584l-0.41,0.083l-0.629,0.044l-0.407,0.476l-0.476,0.235      l-0.218-0.365v-1.057l-0.409-0.605l-0.323-0.561l-0.345-0.216l-0.369,0.044l-0.666,0.345l-0.797,0.388l-0.543-0.171l0.021-0.841      l0.131-0.821l-0.281-0.192l-0.215-0.54l0.345-0.779l0.758-0.668l0.774-0.52l0.261-0.603l0.497-0.237l0.582-0.454v-0.624      l0.475-0.304l0.535-0.5l0.301-0.842l0.219-0.497l0.519-0.839v-0.345l0.67-0.778l0.471-0.432l1.191-0.195l4.25,3.409L86.07,27.3      c0,0,2.979,5.459,3.045,5.459c0.062,0,2.458,7.983,2.458,7.983l1.467,4.424l-0.604,4.249l-0.582-0.237l-0.408,0.237l0.15,0.692      l0.454,0.882l0.496,0.755v4.229l-1.124,3.861l-0.818,0.434l-0.821,0.129l-0.839,0.152l-0.476-0.346l-0.348-0.84v-1.23      l-0.019-1.123l-0.865-0.451l-0.434-0.715l-0.345-1.402l0.131-0.991l-0.69-0.646l-0.625-1.294l-0.496-0.693l-0.605-0.063      l-0.041,0.69l0.6,0.691l0.351,0.926l0.043,0.863l0.347,0.969l0.516,1.211l0.131,1.25l0.65,0.861l0.125,0.975l0.477,0.928      l0.646,0.757l0.41,0.496l-0.064,0.452l0.193,0.56l0.778,0.152l1.013-0.236l0.711-0.173l-0.216,0.755l-2.308,7.076l-7.53,11.069      l-4.424,2.869l-3.946,2.847l-1.212,0.672l-0.303-1.361l-0.259-0.67v-1.271l-0.084-0.993l-0.303-0.646l0.455-0.394l0.189-0.795      l-0.473-0.562l-0.259-0.757l0.064-0.797l0.213-1.315l0.453-0.904l0.498-0.928L71.4,75.416l0.343-0.885l-0.476-0.582l0.408-0.67      l-0.04-0.303l-0.28-0.453L71.27,71.92l-0.151-0.801l-0.277-0.432l-0.409-0.476l-0.347-0.729l0.367-0.564l-0.063-0.473      l0.276-0.543l-0.021-0.814l0.065-0.757l-0.28-0.369h-0.756h-0.602l-0.066-0.431l-0.322-0.109l-0.131-0.517l-0.777-0.302      l-0.387,0.237l-0.822,0.043l-1.271,0.349l-0.928,0.299l-0.776,0.195l-0.731-0.367l-0.498,0.367l-0.928,0.129l-0.818-0.666      l-0.586-0.65l-0.387-0.926l-0.541-0.281l-0.732-1.578L58,61l-0.344-0.993l-0.41-0.56l0.41-0.475l0.365-0.798v-0.52l0.235-0.818      l-0.125-0.475l-0.11-0.714v-1.016l0.519-0.947l0.216-0.69l0.773-0.627l0.498-1.187h0.455l0.494-0.818l0.562-0.411l0.302-0.56      l-0.149-1.25V47.69l0.84-0.583l0.844-0.431l0.411-0.52l-0.025-0.493l0.413-0.089l0.752,0.175l0.952,0.149l0.322-0.474      l0.646-0.582l0.733-0.281l1.338,0.041l0.906-0.126l0.389,0.345l1.015-0.088l0.465-0.344l0.767-0.066l0.192,0.56l-0.129,0.389      L72.5,45.856l-0.305,0.411l0.479,0.582l0.411,0.432l0.666,0.299l0.908,0.131l0.646,0.735l0.666,0.386L76.6,48.92l0.561-0.325      l0.044-0.433l-0.044-0.473l0.975-0.261l0.775,0.237l0.712,0.669l0.428,0.368l0.371-0.217h0.539l0.304,0.345l0.646,0.088      l0.583-0.131h0.646L84,48.528l0.584,0.109l0.146-0.281l-0.17-0.624l0.217-0.26l0.52-0.714L85.1,46.07l0.197-0.711L85.1,45.034      l-0.688-0.151l-0.365,0.476h-0.521l-0.299-0.365l-0.412-0.065l-0.322,0.431l-0.69-0.15l-0.392-0.174l-0.43-0.326l-0.537-0.387      l-0.088-1.061l0.235-0.491l0.042-0.607l0.712-0.713l0.906,0.065l0.688-0.045l0.648-0.062l-0.107-0.496l0.346-0.344l0.757,0.237      l0.774,0.539h0.453l0.713,0.344l0.365,0.237l0.842-0.303l0.24-0.432l-0.672-0.668l-0.602-0.541l-0.584-0.388l-0.238-0.646      l0.128-0.863l-0.171-0.54l-0.582,0.346l-1.035,0.323l-0.691,0.538l-0.258-0.796l-0.5,0.021l-0.58,0.365l-0.236,0.521      l-0.085,0.798L81.346,40.419z"></path></g><g><defs><path id="d" d="M7.626,50.494c0,23.326,18.914,42.236,42.24,42.236c23.327,0.004,42.241-18.91,42.241-42.236       c0-23.329-18.914-42.241-42.241-42.241C26.54,8.253,7.626,27.166,7.626,50.494"></path></defs><clipPath id="c"><use xlink:href="#d" overflow="visible"></use></clipPath><polygon clip-path="url(#c)" points="64.668,27.343 64.042,27.343 63.635,27.84 63.395,28.637 63.504,29.264       64.031,29.697 64.031,30.212 64.279,30.731 64.84,30.968 65.248,31.055 65.248,31.527 64.562,31.895 64.322,32.435       64.452,33.126 64.15,33.577 63.826,34.054 63.285,34.441 63.59,34.55 64.387,34.226 64.906,33.946 65.748,33.92 66.223,34.031       66.803,33.773 67.193,33.321 67.193,32.715 67.688,32.435 67.17,32.089 67.107,31.636 66.609,31.464 66.264,30.947       65.939,30.451 65.576,30.041 65.576,29.458 65.661,28.832 65.854,28.442 65.725,28.184 65.164,28.357 64.604,28.357       64.475,27.84 64.775,27.343     "></polygon></g><g><defs><path id="b" d="M7.626,50.494c0,23.326,18.914,42.236,42.24,42.236c23.327,0.004,42.241-18.91,42.241-42.236       c0-23.329-18.914-42.241-42.241-42.241C26.54,8.253,7.626,27.166,7.626,50.494"></path></defs><clipPath id="a"><use xlink:href="#b" overflow="visible"></use></clipPath><polygon clip-path="url(#a)" points="63.285,30.428 62.686,30.731 62.557,31.356 62.209,31.506 61.777,31.852       61.777,32.241 62.121,32.37 62.016,32.823 61.777,33.147 62.078,33.687 62.531,33.405 62.986,33.277 63.18,32.846       63.072,32.349 63.547,32.057 63.719,31.527 63.719,30.947     "></polygon></g></g></g></g></svg>